<?xml version="1.0" encoding="UTF-8" standalone="no"?>
<!-- Created with Inkscape (http://www.inkscape.org/) -->

<svg
   version="1.1"
   id="svg182"
   width="569.23645"
   height="181.183"
   viewBox="0 0 569.23645 181.183"
   sodipodi:docname="logo-derek.svg"
   xml:space="preserve"
   inkscape:version="1.2.1 (9c6d41e410, 2022-07-14)"
   xmlns:inkscape="http://www.inkscape.org/namespaces/inkscape"
   xmlns:sodipodi="http://sodipodi.sourceforge.net/DTD/sodipodi-0.dtd"
   xmlns="http://www.w3.org/2000/svg"
   xmlns:svg="http://www.w3.org/2000/svg"><defs
     id="defs186"><clipPath
       id="_clipPath_zWmYHhetXCldbld4wsPZJT83fMKvExzU"><rect
         width="200"
         height="200"
         id="rect4041"
         x="0"
         y="0" /></clipPath></defs><sodipodi:namedview
     id="namedview184"
     pagecolor="#ffffff"
     bordercolor="#666666"
     borderopacity="1.0"
     inkscape:showpageshadow="2"
     inkscape:pageopacity="0.0"
     inkscape:pagecheckerboard="0"
     inkscape:deskcolor="#d1d1d1"
     showgrid="false"
     inkscape:zoom="0.99540435"
     inkscape:cx="325.99817"
     inkscape:cy="-41.189291"
     inkscape:window-width="1366"
     inkscape:window-height="699"
     inkscape:window-x="0"
     inkscape:window-y="0"
     inkscape:window-maximized="1"
     inkscape:current-layer="g188" /><g
     inkscape:groupmode="layer"
     inkscape:label="Image"
     id="g188"
     transform="translate(440.5422,-45.891195)"><path
       style="fill:#000000;stroke-width:0.32"
       id="path419"
       d="" /><path
       style="fill:#008000"
       d="m -341.04785,198.58023 -13.11233,-8.948 -23.34151,-0.302 c -22.87311,-0.29594 -23.40586,-0.35028 -26.54804,-2.70792 -1.76359,-1.32326 -3.67609,-3.75291 -4.25,-5.39923 -0.65883,-1.88992 -1.04347,-18.0699 -1.04347,-43.89375 0,-44.397483 -0.0129,-44.286043 5.61488,-48.712813 2.52369,-1.98513 3.83292,-2.08829 26.50343,-2.08829 h 23.8486 l 13.31746,9 13.31747,9.000003 h 23.78105 23.78105 l 13.10901,-9.000003 13.10902,-9 61.55901,0.004 c 14.99502,10e-4 253.970272,0.005 262.048852,0.04108 8.07858,0.03612 5.26049,0.104378 8.6688,0.233966 6.81663,0.259175 6.53891,0.76365 8.15155,1.74685 6.07706,3.705082 6.19216,4.62303 6.16786,49.192237 -0.0202,37.04025 -0.64083,40.38138 -1.38898,44.4291 -0.46065,2.49229 -1.33825,3.39727 -2.24572,4.33297 -3.57044,3.39062 -11.23455,2.88982 -15.33723,2.94142 -8.86454,0.0953 -249.141062,0.0787 -266.216262,0.0787 h -60.40788 l -13.10902,9 -13.10901,9 h -24.87814 -24.87813 z"
       id="path1212"
       sodipodi:nodetypes="ccssssssccccccccsssssccscccccc" /><path
       style="fill:#00d400"
       d="m -341.04785,186.58023 -13.11233,-8.948 -23.34151,-0.302 c -22.87311,-0.29594 -23.40586,-0.35028 -26.54804,-2.70792 -1.76359,-1.32326 -3.67609,-3.75291 -4.25,-5.39923 -0.65883,-1.88992 -1.04347,-18.0699 -1.04347,-43.89374 0,-44.397493 -0.0129,-44.286053 5.61488,-48.712823 2.52369,-1.98513 3.83292,-2.08829 26.50343,-2.08829 h 23.8486 l 13.31746,9 13.31747,9 h 23.78105 23.78105 l 13.10901,-9 13.10902,-9 61.55901,0.004 c 14.99502,10e-4 253.970272,0.005 262.048852,0.04108 8.07858,0.03612 5.26049,0.104378 8.6688,0.233966 6.81663,0.259175 6.53891,0.76365 8.15155,1.74685 6.07706,3.705082 6.19216,4.62303 6.16786,49.192237 -0.0202,37.04025 -0.64083,40.38138 -1.38898,44.4291 -0.46065,2.49229 -1.33825,3.39727 -2.24572,4.33297 -3.57044,3.39062 -11.23455,2.88982 -15.33723,2.94142 -8.86454,0.0953 -249.141062,0.0787 -266.216262,0.0787 h -60.40788 l -13.10902,9 -13.10901,9 h -24.87814 -24.87813 z"
       id="path600"
       sodipodi:nodetypes="ccssssssccccccccsssssccscccccc" /><rect
       style="fill:#008000;stroke:none;stroke-width:45.4721;stroke-dasharray:none"
       id="rect656"
       width="207.33363"
       height="74.855515"
       x="-129.72745"
       y="89.626366"
       ry="16.048048"
       rx="0" /><text
       xml:space="preserve"
       style="font-style:normal;font-weight:normal;font-size:53.3333px;line-height:1.25;font-family:sans-serif;fill:#ff6600;fill-opacity:1;stroke:none"
       x="-108.49792"
       y="147.11612"
       id="text2048"><tspan
         sodipodi:role="line"
         id="tspan2046"
         x="-108.49792"
         y="147.11612"
         style="font-style:normal;font-variant:normal;font-weight:bold;font-stretch:normal;font-size:53.3333px;font-family:Ubuntu;-inkscape-font-specification:'Ubuntu Bold';fill:#ff6600">Derek</tspan></text><text
       xml:space="preserve"
       style="font-style:normal;font-weight:normal;font-size:53.3333px;line-height:1.25;font-family:sans-serif;fill:#ffcc00;fill-opacity:1;stroke:none"
       x="-110.49792"
       y="145.11612"
       id="text1268"><tspan
         sodipodi:role="line"
         id="tspan1266"
         x="-110.49792"
         y="145.11612"
         style="font-style:normal;font-variant:normal;font-weight:bold;font-stretch:normal;font-size:53.3333px;font-family:Ubuntu;-inkscape-font-specification:'Ubuntu Bold'">Derek</tspan></text><text
       xml:space="preserve"
       style="font-style:normal;font-weight:normal;font-size:53.3333px;line-height:1.25;font-family:sans-serif;fill:#ffffff;fill-opacity:1;stroke:none"
       x="-396.49792"
       y="145.11612"
       id="text5703"><tspan
         sodipodi:role="line"
         id="tspan5701"
         x="-396.49792"
         y="145.11612"
         style="font-style:normal;font-variant:normal;font-weight:bold;font-stretch:normal;font-size:53.3333px;font-family:Ubuntu;-inkscape-font-specification:'Ubuntu Bold';fill:#ffffff">El blog de</tspan></text></g></svg>
