<?xml version="1.0" encoding="UTF-8" standalone="no"?>
<!-- Created with Inkscape (http://www.inkscape.org/) -->

<svg
   version="1.1"
   id="svg182"
   width="662.16309"
   height="150"
   viewBox="0 0 662.16309 150"
   sodipodi:docname="logo-derek-v3.svg"
   xml:space="preserve"
   inkscape:version="1.2.1 (9c6d41e410, 2022-07-14)"
   inkscape:export-filename="logo-derek.png"
   inkscape:export-xdpi="79.400002"
   inkscape:export-ydpi="79.400002"
   xmlns:inkscape="http://www.inkscape.org/namespaces/inkscape"
   xmlns:sodipodi="http://sodipodi.sourceforge.net/DTD/sodipodi-0.dtd"
   xmlns="http://www.w3.org/2000/svg"
   xmlns:svg="http://www.w3.org/2000/svg"><defs
     id="defs186"><clipPath
       id="_clipPath_zWmYHhetXCldbld4wsPZJT83fMKvExzU"><rect
         width="200"
         height="200"
         id="rect4041"
         x="0"
         y="0" /></clipPath></defs><sodipodi:namedview
     id="namedview184"
     pagecolor="#ffffff"
     bordercolor="#666666"
     borderopacity="1.0"
     inkscape:showpageshadow="2"
     inkscape:pageopacity="0.0"
     inkscape:pagecheckerboard="0"
     inkscape:deskcolor="#d1d1d1"
     showgrid="false"
     inkscape:zoom="0.57728471"
     inkscape:cx="588.96416"
     inkscape:cy="216.53094"
     inkscape:window-width="1366"
     inkscape:window-height="705"
     inkscape:window-x="-8"
     inkscape:window-y="-8"
     inkscape:window-maximized="1"
     inkscape:current-layer="g188" /><g
     inkscape:groupmode="layer"
     inkscape:label="Image"
     id="g188"
     transform="translate(409.3432,-64.528224)"><path
       style="fill:#000000;stroke-width:0.32"
       id="path419"
       d="" /><g
       id="g21057"
       transform="translate(155)"><path
         style="fill:#008000"
         d="m -341.04785,198.58023 -13.11233,-8.948 -23.34151,-0.302 c -22.87311,-0.29594 -23.40586,-0.35028 -26.54804,-2.70792 -1.76359,-1.32326 -3.67609,-3.75291 -4.25,-5.39923 -0.65883,-1.88992 -1.04347,-18.0699 -1.04347,-43.89375 0,-44.397483 -0.0129,-44.286043 5.61488,-48.712813 2.52369,-1.98513 3.83292,-2.08829 26.50343,-2.08829 h 23.8486 l 13.31746,9 13.31747,9.000003 h 23.78105 23.78105 l 13.10901,-9.000003 13.10902,-9 61.55901,0.004 c 14.99502,10e-4 253.970272,0.005 262.048852,0.04108 8.07858,0.03612 5.26049,0.104378 8.6688,0.233966 6.81663,0.259175 6.53891,0.76365 8.15155,1.74685 6.07706,3.705082 6.19216,4.62303 6.16786,49.192237 -0.0202,37.04025 -0.64083,40.38138 -1.38898,44.4291 -0.46065,2.49229 -1.33825,3.39727 -2.24572,4.33297 -3.57044,3.39062 -11.23455,2.88982 -15.33723,2.94142 -8.86454,0.0953 -249.141062,0.0787 -266.216262,0.0787 h -60.40788 l -13.10902,9 -13.10901,9 h -24.87814 -24.87813 z"
         id="path1212"
         sodipodi:nodetypes="ccssssssccccccccsssssccscccccc" /><path
         style="fill:#00ff00"
         d="m -341.04785,186.58023 -13.11233,-8.948 -23.34151,-0.302 c -22.87311,-0.29594 -23.40586,-0.35028 -26.54804,-2.70792 -1.76359,-1.32326 -3.67609,-3.75291 -4.25,-5.39923 -0.65883,-1.88992 -1.04347,-18.0699 -1.04347,-43.89374 0,-44.397493 -0.0129,-44.286053 5.61488,-48.712823 2.52369,-1.98513 3.83292,-2.08829 26.50343,-2.08829 h 23.8486 l 13.31746,9 13.31747,9 h 23.78105 23.78105 l 13.10901,-9 13.10902,-9 61.55901,0.004 c 14.99502,10e-4 253.970272,0.005 262.048852,0.04108 8.07858,0.03612 5.26049,0.104378 8.6688,0.233966 6.81663,0.259175 6.53891,0.76365 8.15155,1.74685 6.07706,3.705082 6.19216,4.62303 6.16786,49.192237 -0.0202,37.04025 -0.64083,40.38138 -1.38898,44.4291 -0.46065,2.49229 -1.33825,3.39727 -2.24572,4.33297 -3.57044,3.39062 -11.23455,2.88982 -15.33723,2.94142 -8.86454,0.0953 -249.141062,0.0787 -266.216262,0.0787 h -60.40788 l -13.10902,9 -13.10901,9 h -24.87814 -24.87813 z"
         id="path600"
         sodipodi:nodetypes="ccssssssccccccccsssssccscccccc" /><path
         style="fill:#00d400;stroke-width:0.948217"
         d="m -338.40568,183.71952 -10.85169,-10.20847 -22.87741,-0.27704 c -22.41837,-0.2715 -24.94053,-0.32135 -28.0202,-2.48413 -1.72852,-1.21389 -3.60291,-3.44275 -4.16551,-4.953 -0.64604,-1.73372 -1.02271,-16.5765 -1.02271,-40.26607 0,-40.7282 -0.01,-40.62597 5.50325,-44.68688 2.47348,-1.821071 -0.24322,-1.915703 21.97641,-1.915703 h 23.3746 l 13.05261,8.256183 13.05271,8.25618 h 23.30823 27.30823 l 12.84834,-8.25618 12.84845,-8.256183 62.33512,0.0036 c 14.6969,9.23e-4 248.921023,0.0046 256.838971,0.03785 7.917948,0.03324 5.155968,0.09573 8.496423,0.214632 6.681206,0.237713 6.408983,0.70049 7.989456,1.602481 5.956362,3.39887 6.069197,4.24096 6.045328,45.12667 -0.01973,33.979 -0.628283,37.044 -1.361412,40.7572 -0.451733,2.28631 -1.311702,3.11649 -2.201063,3.97487 -3.499449,3.11039 -11.011134,2.65098 -15.032344,2.69831 -8.688261,0.0877 -244.187689,0.072 -260.923509,0.072 h -61.20677 l -14.84845,10.25617 -12.84834,8.25619 h -22.38361 -24.38351 z"
         id="path5773"
         sodipodi:nodetypes="ccssssssccccccccsssssccscccccc" /><rect
         style="fill:#008000;stroke:none;stroke-width:45.4721;stroke-dasharray:none"
         id="rect656"
         width="207.33363"
         height="74.855515"
         x="-129.72745"
         y="89.626366"
         ry="16.048048"
         rx="0" /><text
         xml:space="preserve"
         style="font-style:normal;font-weight:normal;font-size:53.3333px;line-height:1.25;font-family:sans-serif;fill:#ff6600;fill-opacity:1;stroke:none"
         x="-102.49792"
         y="147.11612"
         id="text2048"><tspan
           sodipodi:role="line"
           id="tspan2046"
           x="-102.49792"
           y="147.11612"
           style="font-style:normal;font-variant:normal;font-weight:bold;font-stretch:normal;font-size:53.3333px;font-family:Ubuntu;-inkscape-font-specification:'Ubuntu Bold';fill:#ff6600">Derek</tspan></text><text
         xml:space="preserve"
         style="font-style:normal;font-weight:normal;font-size:53.3333px;line-height:1.25;font-family:sans-serif;fill:#ffcc00;fill-opacity:1;stroke:none"
         x="-104.49792"
         y="145.11612"
         id="text1268"><tspan
           sodipodi:role="line"
           id="tspan1266"
           x="-104.49792"
           y="145.11612"
           style="font-style:normal;font-variant:normal;font-weight:bold;font-stretch:normal;font-size:53.3333px;font-family:Ubuntu;-inkscape-font-specification:'Ubuntu Bold'">Derek</tspan></text><text
         xml:space="preserve"
         style="font-style:normal;font-weight:normal;font-size:53.3333px;line-height:1.25;font-family:sans-serif;fill:#ffffff;fill-opacity:1;stroke:none"
         x="-394.49792"
         y="145.11612"
         id="text5703"><tspan
           sodipodi:role="line"
           id="tspan5701"
           x="-394.49792"
           y="145.11612"
           style="font-style:normal;font-variant:normal;font-weight:bold;font-stretch:normal;font-size:53.3333px;font-family:Ubuntu;-inkscape-font-specification:'Ubuntu Bold';fill:#ffffff">El blog de</tspan></text></g><g
       id="g20319"
       transform="matrix(1.4285714,0,0,1.4285714,175.43279,185.20218)"><path
         sodipodi:type="star"
         style="fill:#87aade;fill-opacity:1;stroke:none;stroke-width:4.344;stroke-dasharray:none;stroke-opacity:1"
         id="path14759"
         inkscape:flatsided="false"
         sodipodi:sides="3"
         sodipodi:cx="-132.4738"
         sodipodi:cy="-158.74014"
         sodipodi:r1="38.966831"
         sodipodi:r2="19.483418"
         sodipodi:arg1="0.52359878"
         sodipodi:arg2="1.5707963"
         inkscape:rounded="0"
         inkscape:randomized="0"
         d="m -98.727535,-139.25673 -33.746265,0 -33.74627,0 16.87313,-29.22512 16.87314,-29.22512 16.87313,29.22512 z"
         transform="matrix(0.29632908,0,0,0.51325701,-320.08736,1.0027173)"
         inkscape:transform-center-y="-4.9999998"
         inkscape:transform-center-x="-3.471972e-06" /><rect
         style="fill:#3771c8;stroke-width:1.19072"
         id="rect175"
         width="100"
         height="75"
         x="-409.3432"
         y="-75.471771"
         ry="8.2230139" /><rect
         style="fill:#87aade;stroke-width:0.91202"
         id="rect280"
         width="80"
         height="55"
         x="-399.3432"
         y="-65.471771"
         ry="6.03021" /><circle
         style="fill:#ffffff;stroke-width:0.698285"
         id="path334"
         cx="-401.8432"
         cy="-67.971771"
         r="2.5" /><circle
         style="fill:#ffffff;stroke-width:0.698285"
         id="circle336"
         cx="-316.8432"
         cy="-67.971771"
         r="2.5" /><circle
         style="fill:#ffffff;stroke-width:0.698285"
         id="circle338"
         cx="-401.8432"
         cy="-7.9717731"
         r="2.5" /><circle
         style="fill:#ffffff;stroke-width:0.698285"
         id="circle340"
         cx="-316.8432"
         cy="-7.9717731"
         r="2.5" /><g
         id="g13214"
         transform="matrix(1.3461537,0,0,1.3461537,130.9649,13.701759)"><g
           id="g13209"><circle
             style="fill:#ffffff;stroke:#3771c8;stroke-width:2.98277;stroke-dasharray:none;stroke-opacity:1"
             id="path181"
             cx="-378.3432"
             cy="-42.471771"
             r="11.508616" /><circle
             style="fill:#000000;stroke-width:1.39657"
             id="circle6000"
             cx="-378.3432"
             cy="-42.471771"
             r="5" /></g></g><g
         id="g13222"
         transform="matrix(1.3461537,0,0,1.3461537,118.15721,13.70176)"><circle
           style="fill:#ffffff;stroke:#3771c8;stroke-width:2.98277;stroke-dasharray:none;stroke-opacity:1"
           id="circle1642"
           cx="-341.3432"
           cy="-42.471771"
           r="11.508616" /><circle
           style="fill:#000000;stroke-width:1.39657"
           id="circle6002"
           cx="-341.3432"
           cy="-42.471771"
           r="5" /></g><rect
         style="fill:#ffff00;stroke:none;stroke-width:4.51484;stroke-dasharray:none;stroke-opacity:1"
         id="rect8960"
         width="27"
         height="10"
         x="-372.8432"
         y="-22.971773"
         ry="5"
         rx="5.1600084" /><circle
         style="fill:#ff0000;fill-opacity:1;stroke:none;stroke-width:3.52164;stroke-dasharray:none;stroke-opacity:1"
         id="path15539"
         cx="-359.3432"
         cy="-97.971771"
         r="7.5" /><rect
         style="fill:#ff6600;fill-opacity:1;stroke:none;stroke-width:2.77945;stroke-dasharray:none;stroke-opacity:1"
         id="rect18802"
         width="3"
         height="10"
         x="-360.8432"
         y="-22.971773"
         rx="0"
         ry="0" /><rect
         style="fill:#ff6600;fill-opacity:1;stroke:none;stroke-width:2.77945;stroke-dasharray:none;stroke-opacity:1"
         id="rect20290"
         width="3"
         height="10"
         x="-364.8432"
         y="-22.971773"
         rx="0"
         ry="0" /><rect
         style="fill:#ff6600;fill-opacity:1;stroke:none;stroke-width:2.77945;stroke-dasharray:none;stroke-opacity:1"
         id="rect20292"
         width="3"
         height="10"
         x="-368.8432"
         y="-22.971773"
         rx="0"
         ry="0" /><rect
         style="fill:#ff6600;fill-opacity:1;stroke:none;stroke-width:2.77945;stroke-dasharray:none;stroke-opacity:1"
         id="rect20294"
         width="3"
         height="10"
         x="-356.8432"
         y="-22.971773"
         rx="0"
         ry="0" /><rect
         style="fill:#ff6600;fill-opacity:1;stroke:none;stroke-width:2.77945;stroke-dasharray:none;stroke-opacity:1"
         id="rect20296"
         width="3"
         height="10"
         x="-352.8432"
         y="-22.971773"
         rx="0"
         ry="0" /></g><path
       style="fill:#000000"
       d="m -544.94168,924.11032 c -7.49346,-1.34585 -16.27694,-6.0968 -22.17391,-11.99377 -6.06649,-6.06649 -8.54162,-10.63589 -10.66689,-19.69243 -5.22578,-22.2689 8.57224,-41.32432 29.86863,-41.24936 7.63234,0.0269 12.89909,2.2477 19.33363,8.15242 6.63413,6.08788 9.67784,13.22634 9.73243,22.82562 0.027,4.74193 -0.54115,8.83843 -1.5449,11.13956 -2.17552,4.98753 -8.19153,11.42845 -13.69825,14.66578 l -4.58364,2.69466 5.77768,0.30073 c 12.16491,0.63319 25.56155,-4.80616 34.23632,-13.90075 11.01138,-11.54429 12.05087,-18.0773 7.06468,-44.39998 -1.9795,-10.45 -3.78108,-19.49919 -4.00352,-20.10932 -0.29168,-0.80007 -2.30989,-0.74062 -7.23979,0.21325 -9.94388,1.92402 -26.20046,1.70723 -36.85311,-0.49144 -22.18369,-4.57864 -44.10563,-18.19463 -57.07823,-35.452 -24.46499,-32.54564 -19.01638,-71.96492 16.15346,-116.86613 3.14241,-4.0119 14.34738,-15.85165 24.89993,-26.31057 l 19.18647,-19.01621 -1.25,-5.48379 c -8.41408,-36.9127 -0.29385,-85.88196 18.89118,-113.92369 3.69096,-5.39488 12.10049,-14.48639 15.90666,-17.19662 l 2.69775,-1.92097 7.43274,11.27874 c 18.95196,28.75848 26.47885,51.98323 25.36928,78.27875 -1.19558,28.33391 -12.21463,51.21672 -37.24282,77.34068 l -11.3045,11.79942 3.91497,17.92995 c 2.15323,9.86147 4.16095,19.07368 4.46159,20.47157 0.52127,2.42368 0.88571,2.5481 7.85384,2.68139 15.91241,0.30439 29.31324,5.99503 40.68535,17.27699 11.33647,11.2466 16.2423,23.06064 16.13001,38.84365 -0.13258,18.6341 -11.10571,36.61547 -30.06546,49.26745 -4.19346,2.79833 -7.77057,5.2267 -7.94913,5.39637 -0.17855,0.16967 1.35155,10.5874 3.40023,23.15051 3.45884,21.21067 3.64465,23.40068 2.6017,30.66434 -2.81368,19.596 -17.84137,35.75539 -39.17728,42.12762 -6.64451,1.98447 -23.51048,2.8109 -30.7671,1.50758 z m 39.04334,-104.61506 c 3.24909,-0.91165 6.13338,-2.24635 6.40954,-2.966 0.43203,-1.12586 -14.35064,-68.24569 -15.2494,-69.23893 -0.74063,-0.81849 -9.67114,2.92791 -13.87648,5.82125 -7.92477,5.45239 -12.01888,15.90926 -9.65946,24.67149 1.85377,6.88437 6.53404,12.58987 16.26799,19.83154 5.09622,3.79139 8.70795,7.0794 8.02606,7.30669 -3.08047,1.02683 -19.03848,-2.02559 -24.96832,-4.77588 -7.51359,-3.48485 -15.791,-11.43234 -19.26029,-18.49262 -2.15916,-4.39407 -2.45745,-6.34219 -2.46139,-16.07539 -0.005,-11.02312 0.0156,-11.11591 4.24928,-19.65986 3.39232,-6.84599 5.69132,-9.91542 11.3523,-15.15661 6.49716,-6.01538 19.06698,-13.60814 22.52829,-13.60814 0.7511,0 1.3651,-0.3375 1.36444,-0.75 -0.002,-1.46671 -7.10905,-33.69358 -7.521,-34.10553 -0.81615,-0.81616 -14.17709,10.86488 -24.0667,21.04076 -21.62032,22.24614 -31.4111,41.55251 -31.4111,61.93934 0,10.61792 2.43286,19.15376 7.82302,27.44756 8.8686,13.64604 22.16656,23.03846 38.09335,26.90552 8.07685,1.96109 25.1429,1.88978 32.35987,-0.13519 z m 32.21489,-24.84246 c 4.97359,-10.02375 5.16841,-22.26886 0.50276,-31.59917 -3.36867,-6.73663 -10.60961,-13.61335 -16.7557,-15.9129 -4.74664,-1.77595 -10.23819,-2.63536 -10.23819,-1.60224 0,0.58556 12.93438,55.53639 14.14974,60.11422 l 1.06194,3.99991 4.39927,-4.99991 c 2.4196,-2.74995 5.51568,-7.24991 6.88018,-9.99991 z m -29.47993,-193.5961 c 11.23264,-15.14946 15.9888,-27.03619 15.9888,-39.95968 0,-8.71396 -1.54221,-13.96504 -6.00756,-20.4552 -4.14893,-6.03027 -7.35072,-6.12029 -12.88355,-0.36226 -11.76901,12.24803 -20.14431,42.29117 -20.09524,72.08383 0.0237,14.39416 0.0685,14.41927 9.06214,5.08132 4.26422,-4.42748 10.53516,-11.80208 13.93541,-16.38801 z m 155.64399,322.69838 c -9.9997,-3.72384 -14.37366,-13.17913 -11.17944,-24.16686 1.28173,-4.40898 2.95617,-7.08512 7.24935,-11.58606 9.25228,-9.70005 20.81528,-13.76781 30.0249,-10.56247 l 4.25,1.47918 V 815.03583 751.1528 h 5.5 5.5 v 72.96249 c 0,71.69203 -0.0366,73.0603 -2.10181,78.58006 -5.58664,14.93166 -26.11538,25.94839 -39.243,21.05973 z m 299.587195,-0.0964 c -1.81131,-0.78721 -3.69822,-2.57465 -4.25,-4.02596 -2.04603,-5.38146 -1.51883,-6.01702 7.75761,-9.352 16.94208,-6.09087 29.46317,-14.82256 42.4860001,-29.62797 28.8425399,-32.79054 41.0628899,-76.23 28.7202899,-102.09158 -3.77667,-7.9133 -11.91033,-15.56813 -19.0681199,-17.94556 -7.48315003,-2.48551 -18.7004001,-1.65202 -25.6723201,1.90757 -5.9411,3.03329 -12.2858,8.93037 -14.76373,13.72216 -1.58274,3.06067 -1.57423,3.16528 0.19682,2.4201 8.67899,-3.65175 15.7187,-2.7628 22.03443,2.78242 10.21372007,8.96765 9.87689007,27.54536 -0.67221,37.07584 -4.97453,4.49419 -9.71919,5.92775 -18.05937,5.45648 -5.64611,-0.31903 -7.62815,-0.92235 -11.15869,-3.39662 -12.37796,-8.67472 -16.58397,-30.5958 -8.98582,-46.83267 5.87551,-12.55567 19.36918,-23.30641 35.12588,-27.98565 6.3664601,-1.89064 24.52585,-2.18417 33.63318,-0.54365 10.19904,1.83716 21.94052,8.22407 30.01319,16.32598 12.01129,12.05481 16.72906,25.419 16.80535,47.60518 0.0391,11.37939 -0.31762,14.67812 -2.27108,21 -3.84988,12.45911 -18.30527,38.75847 -26.32448,47.89332 -16.0799,18.31695 -48.52243,39.27297 -69.76922,45.06693 -8.73366,2.38165 -11.34545,2.47198 -15.77771,0.54568 z M -224.17459,864.1528 v -60 h 6 6 v 28.11663 28.11663 l 2.25,-0.63018 c 8.9126,-2.49623 15.31812,-1.52025 20.91138,3.18616 3.96055,3.33259 5.84971,7.87169 5.79703,13.92864 -0.11623,13.36479 -11.07993,27.86571 -31.88647,42.17398 -4.08544,2.80948 -7.79794,5.10814 -8.25,5.10814 -0.45207,0 -0.82194,-27 -0.82194,-60 z m 16.91173,30.49843 c 6.53623,-10.78474 4.75862,-23.4329 -2.9495,-20.98644 -1.81638,0.5765 -1.96223,1.58403 -1.96223,13.5554 0,7.11293 0.35492,12.93261 0.78871,12.93261 0.43379,0 2.28915,-2.47571 4.12302,-5.50157 z m 30.08827,-97.99843 v -60.5 h 6 6 v 28.07946 28.07945 l 3.16462,-0.69507 c 8.55495,-1.87898 16.29538,0.0182 20.74332,5.08409 11.43241,13.0208 2.50133,32.76807 -23.72642,52.46082 -5.85372,4.39519 -10.98926,7.99125 -11.41232,7.99125 -0.42306,0 -0.7692,-27.225 -0.7692,-60.5 z m 17.244,28.76724 c 5.44159,-10.05238 4.35734,-19.26724 -2.26705,-19.26724 h -2.97695 v 13.12244 c 0,14.55663 0.42248,15.05169 5.244,6.1448 z m 378.98348,-50.51443 0.27253,-82.2966 3.27411,-6.6498 c 10.43012,-21.1838 37.07867,-29.6737 49.60851,-15.80466 8.60527,9.52501 6.42616,23.95418 -5.40424,35.78458 -6.58078,6.58078 -13.97027,9.70298 -22.97838,9.70881 -4.125,0.003 -8.9625,-0.36839 -10.75,-0.8246 l -3.25,-0.82945 v 56.59851 56.5985 l 2.75,-0.69048 c 1.5125,-0.37977 26.15,-5.48506 54.75,-11.3451 l 52,-10.65461 0.5,-77.92395 0.5,-77.92396 2.36103,-5.85473 c 4.91589,-12.19008 19.92634,-23.56827 32.26984,-24.46112 8.74365,-0.63246 12.50481,0.43884 17.40783,4.95831 5.34,4.9222 6.8681,9.20057 6.2109,17.38854 -1.1648,14.51026 -14.03056,27.55538 -30.10779,30.52742 -5.21627,0.96428 -9.4583,0.48417 -15.20436,-1.72079 -1.24252,-0.4768 -1.43745,10.24394 -1.43745,79.05538 0,44.07698 -0.38578,79.60699 -0.86437,79.60699 -0.72285,0 -122.97669,26.8197 -129.90816,28.49888 l -2.27254,0.55054 z M 85.325415,839.60814 c -9.05614,-3.11835 -12.19741,-13.85302 -6.27845,-21.45534 2.78151,-3.57257 5.66112,-4.92404 10.57811,-4.96456 8.2686,-0.0682 14.192865,5.55211 14.192865,13.46456 0,9.83813 -9.077205,16.19736 -18.492525,12.95534 z m 1.21338,-51.16663 c -4.42852,-0.68117 -9.46364,-6.44055 -10.25725,-11.73266 -2.27323,-15.15899 18.45856,-22.07878 25.680775,-8.57165 5.77777,10.80568 -2.900725,22.23048 -15.423525,20.30431 z M 186.42807,668.9028 c 1.43558,-9.74193 16.48268,-32.84445 31.33327,-48.10745 27.00925,-27.75931 62.70999,-46.59627 102.84188,-54.26297 11.69857,-2.23486 16.52415,-2.62928 32.7222,-2.6745 24.97129,-0.0697 41.3827,2.74552 49.9526,8.56891 l 3.7792,2.56801 -3.8659,1.07114 c -2.776,0.76916 -7.7466,0.74698 -17.63113,-0.0787 -24.29879,-2.02971 -52.9473,1.40178 -80.23477,9.61046 -13.22938,3.97969 -38.47109,15.88256 -52.61101,24.80901 -19.21711,12.13166 -38.5144,30.03143 -52.55193,48.74608 -6.13843,8.18367 -11.87515,14 -13.80839,14 -0.30377,0 -0.27048,-1.9125 0.074,-4.25 z m -295.59552,0.72213 c -4.35052,-1.96773 -7.72964,-5.07428 -9.75933,-8.97213 -2.26967,-4.35871 -1.92048,-13.09075 0.75073,-18.7735 2.92339,-6.21925 12.50571,-15.02884 18.609132,-17.10849 5.193493,-1.7696 16.009853,-2.14537 18.392333,-0.63896 1.32579,0.83828 1.55807,-6.56726 2,-63.76531 l 0.5,-64.71374 76.7802601,-0.25622 76.7802499,-0.25621 -0.28025,75.25621 -0.28026,75.25622 -2.34279,4.39204 c -3.58961,6.72947 -10.75209,13.74942 -17.43679,17.08981 -10.3485,5.1712 -22.23508,3.94896 -27.97868,-2.87693 -5.38624,-6.40117 -6.00899,-13.95938 -1.86251,-22.60492 4.38894,-9.15111 11.97625,-15.43398 21.74812,-18.00912 5.82109,-1.53401 11.93641,-1.27549 15.62265,0.66043 1.65622,0.86981 1.75,-1.92298 1.75,-52.11613 V 519.1528 H -1.6745849 -67.174585 l -0.0198,57.25 c -0.0113,32.64158 -0.44821,60.21371 -1.01645,64.1449 -1.72799,11.95446 -8.65892,21.37651 -19.9238,27.08486 -6.58528,3.33701 -16.072845,4.23574 -21.032805,1.99237 z m -211.76689,-2.52758 c -4.73173,-2.40289 -7.36615,-5.60509 -9.15843,-11.13227 -3.44032,-10.60955 7.51652,-29.19311 19.57334,-33.19774 5.42401,-1.80157 13.47981,-2.25365 19.59484,-1.09964 l 3.75,0.70768 v -62.48965 -62.48965 l 4.18965,-1.06345 c 2.30431,-0.58489 4.52148,-0.85836 4.92704,-0.60771 0.40557,0.25066 1.27035,2.13697 1.92173,4.19181 2.32167,7.3239 8.24022,16.46171 20.9184,32.29649 13.61643,17.00664 19.02315,25.92583 21.51479,35.49188 4.28772,16.46169 -0.91216,34.99996 -13.7458,49.00562 -7.24245,7.90387 -12.08103,10.54036 -20.5988,11.22408 l -6.43181,0.51629 10.01517,-9.89915 c 11.08314,-10.95474 15.41197,-18.14586 17.39639,-28.89914 2.47919,-13.43436 -0.50265,-23.33383 -9.34971,-31.04031 -3.92018,-3.41478 -13.16646,-8.38547 -18.46164,-9.92477 l -2.20458,-0.64087 -0.29542,47.80298 -0.29541,47.80297 -2.41557,4.86795 c -7.7152,15.54797 -28.33797,24.92754 -40.84418,18.5766 z"
       id="path26193" /><path
       style="fill:#000000;stroke-width:0.630713"
       d="m 274.09045,183.21826 c -2.98436,-1.51554 -4.64593,-3.53521 -5.77634,-7.02127 -2.16985,-6.69158 4.74077,-18.41248 12.34516,-20.93825 3.421,-1.13627 8.5019,-1.42141 12.35873,-0.69356 l 2.36518,0.44635 V 115.59849 76.18544 l 2.64246,-0.670732 c 1.45336,-0.368898 2.85176,-0.541379 3.10755,-0.38329 0.2558,0.158094 0.80123,1.347814 1.21206,2.643829 1.46431,4.61928 5.19722,10.38262 13.19351,20.36982 8.58806,10.726313 11.99815,16.351763 13.56966,22.385193 2.70432,10.38261 -0.57531,22.07494 -8.66966,30.90849 -4.5679,4.98508 -7.61966,6.64794 -12.99193,7.07918 l -4.05663,0.32563 6.3167,-6.24353 c 6.99028,-6.9093 9.72053,-11.44483 10.97213,-18.22706 1.56366,-8.47323 -0.31702,-14.71696 -5.89698,-19.57753 -2.47251,-2.15375 -8.30426,-5.28883 -11.644,-6.25969 l -1.39046,-0.4042 -0.18632,30.14996 -0.18632,30.14996 -1.52353,3.07028 c -4.86608,9.80631 -17.87314,15.72213 -25.76097,11.71651 z"
       id="path26195"
       sodipodi:nodetypes="sssscccssssssscsssscccss" /><path
       style="fill:#000000;stroke-width:0.586042"
       d="m 440.66786,115.67098 -0.15972,48.22928 -1.91876,3.89707 c -6.1125,12.4146 -21.72967,17.39004 -29.07269,9.2622 -5.04305,-5.58206 -3.766,-14.03816 3.16712,-20.97128 3.85661,-3.85661 8.18716,-5.68635 13.4663,-5.68977 2.41742,-0.002 5.2524,0.21589 6.29995,0.48325 l 1.90464,0.48609 V 118.1987 85.029586 l -1.61162,0.404651 c -0.88639,0.222561 -15.325,3.214473 -32.08581,6.648713 l -30.4742,6.24405 -0.29302,45.66673 -0.29302,45.66673 -1.38366,3.43112 c -2.88092,7.1439 -11.67768,13.812 -18.91149,14.33525 -5.12415,0.37065 -7.32835,-0.25718 -10.20173,-2.90578 -3.12946,-2.88462 -4.02499,-5.39192 -3.63985,-10.19042 0.68263,-8.50362 8.2225,-16.14862 17.64444,-17.89036 3.05696,-0.56511 5.54296,-0.28374 8.9104,1.00846 0.72817,0.27942 0.8424,-6.00338 0.8424,-46.32979 0,-25.83098 0.22609,-46.653068 0.50656,-46.653068 0.42362,0 72.06954,-15.717477 76.13167,-16.701547 l 1.33181,-0.32264 z"
       id="path244"
       sodipodi:nodetypes="ccssscscccsscccssssssssscc" /></g></svg>
